<svg width="260" height="243" viewBox="0 0 260 243" fill="none" xmlns="http://www.w3.org/2000/svg">
<rect x="30.5073" y="52.9729" width="229.493" height="138.234" rx="41" fill="#EFF0F2"/>
<mask id="mask0" mask-type="alpha" maskUnits="userSpaceOnUse" x="30" y="52" width="230" height="139">
<rect x="30.5073" y="52.4685" width="229.493" height="138.234" rx="41" fill="#EFF0F2"/>
</mask>
<g mask="url(#mask0)">
<path d="M165.933 216.222C208.135 216.222 242.347 182.002 242.347 139.789C242.347 97.5769 208.135 63.3569 165.933 63.3569C123.731 63.3569 89.5198 97.5769 89.5198 139.789C89.5198 182.002 123.731 216.222 165.933 216.222Z" fill="#EFF0F2"/>
<path d="M192.892 54.0823C192.892 54.0823 191.928 45.4055 192.892 45.4055H195.784V46.1961L198.193 45.4055H210.993L207.379 47.8929L216.419 50.4959V147.299C216.419 147.299 211.417 158.386 205.885 160.989C205.885 160.989 209.74 130.37 208.497 112.968C208.497 112.968 207.34 155.118 202.945 162.802L201.104 164.383L195.543 160.527V119.167C195.543 119.167 193.615 156.005 194.145 159.958L188.535 151.377V101.881L192.892 54.0823Z" fill="url(#paint0_linear)"/>
<path d="M189.422 57.1381C189.644 56.8007 189.229 53.7445 190.791 53.4071C192.352 53.0697 201.056 52.1634 201.962 53.4071C202.868 54.6508 201.133 63.0479 201.133 63.0479L189.422 57.1381Z" fill="url(#paint1_linear)"/>
<path d="M155.765 84.0556C155.765 84.0556 154.3 66.0658 157.461 61.2069C160.623 56.3479 164.68 52.1638 166.83 52.0577C168.979 51.9517 184.458 54.4294 185.933 55.7887C185.933 55.7887 196.217 53.9763 198.588 55.567C200.959 57.1577 205.142 72.5156 201.634 87.9987C198.126 103.482 180.825 107.618 180.825 107.618L155.765 84.0556Z" fill="#622A0B"/>
<path d="M165.577 52.9351C163.289 55.3133 161.707 58.2806 161.008 61.5057C160.343 64.6101 160.285 68.6207 161.972 71.4454C162.136 71.725 162.637 71.619 162.55 71.2526C162.12 69.7704 161.779 68.2638 161.528 66.7407C161.356 65.1776 161.395 63.5983 161.644 62.0456C162.141 58.7556 163.623 55.6933 165.895 53.2629C166.087 53.0604 165.798 52.7133 165.606 52.9254L165.577 52.9351Z" fill="url(#paint2_linear)"/>
<path d="M168.478 52.6747C167.484 55.0475 167.052 57.6176 167.215 60.1849C167.331 62.3733 167.726 65.1885 169.143 66.9334C169.178 66.9702 169.223 66.995 169.273 67.0045C169.322 67.014 169.374 67.0076 169.419 66.9863C169.465 66.965 169.503 66.9298 169.528 66.8857C169.553 66.8416 169.563 66.7909 169.557 66.7406C169.326 65.6319 168.834 64.6004 168.545 63.5013C168.258 62.3989 168.071 61.2728 167.986 60.1367C167.841 57.662 168.151 55.1818 168.902 52.8193C168.918 52.7655 168.912 52.7077 168.887 52.6577C168.862 52.6076 168.819 52.5689 168.766 52.5493C168.714 52.5298 168.656 52.5308 168.604 52.5523C168.552 52.5738 168.511 52.614 168.487 52.665L168.478 52.6747Z" fill="url(#paint3_linear)"/>
<path d="M176.082 53.7832C174.839 56.7911 175.562 61.4187 178.694 63.077C178.954 63.2119 179.292 62.9227 179.06 62.6624C177.903 61.5659 177.022 60.2116 176.487 58.7097C176.028 57.1587 176.069 55.5027 176.603 53.976C176.619 53.9095 176.61 53.8395 176.577 53.7792C176.545 53.7189 176.492 53.6725 176.428 53.6487C176.364 53.625 176.293 53.6256 176.23 53.6504C176.166 53.6751 176.113 53.7224 176.082 53.7832Z" fill="url(#paint4_linear)"/>
<path d="M186.222 56.2129V56.1647C186.232 56.1471 186.238 56.1271 186.238 56.1068C186.238 56.0865 186.232 56.0666 186.222 56.049C186.18 55.9978 186.122 55.9608 186.058 55.9429C186.015 55.93 185.968 55.9336 185.927 55.9532C185.886 55.9728 185.854 56.0069 185.837 56.049C185.576 56.5696 186.328 57.013 186.617 57.3987C187.422 58.3339 188.163 59.3228 188.834 60.3584C190.126 62.3541 191.147 64.504 192.275 66.596C192.312 66.6727 192.378 66.7316 192.459 66.7596C192.539 66.7876 192.627 66.7825 192.704 66.7455C192.781 66.7084 192.84 66.6424 192.868 66.5619C192.896 66.4814 192.89 66.3931 192.853 66.3164C191.955 64.232 190.901 62.2179 189.702 60.2909C189.186 59.4682 188.623 58.6763 188.015 57.9193C187.88 57.7554 186.087 55.779 186.01 56.1357C186.007 56.1618 186.012 56.1882 186.026 56.2106C186.04 56.233 186.061 56.2501 186.085 56.2591C186.11 56.268 186.137 56.2683 186.162 56.2599C186.187 56.2515 186.208 56.2349 186.222 56.2129Z" fill="url(#paint5_linear)"/>
<path d="M178.164 146.779L163.524 147.434L151.379 156.757C152.41 157.798 146.82 167.989 146.82 167.989C148.064 168.818 151.379 160.276 151.379 160.276L152.044 163.93C151.244 166.745 144.738 174.631 144.738 174.631C137.249 177.523 134.136 185.236 134.136 185.236C118.715 192.1 115.823 215.807 115.823 215.807C131.457 234.192 147.331 222.806 147.331 222.806L159.736 228.697C169.76 233.893 183.543 229.738 183.543 229.738C206.578 185.034 178.164 146.779 178.164 146.779ZM173.567 210.861L169.075 212.683L166.589 210.293C166.589 210.293 171.408 202.831 173.576 203.216L173.567 210.861Z" fill="#458FB9"/>
<path d="M162.772 148.948C162.772 148.948 151.784 158.116 152.17 159.62L153.133 163.332C153.133 163.332 162.261 151.985 162.772 148.948Z" fill="#166B93"/>
<path d="M170.319 125.241C170.319 125.241 166.261 129.097 163.032 128.23C159.803 127.362 148.825 119.341 151.909 92.6551C154.994 65.9694 176.969 65.6608 183.909 65.8826C190.848 66.1043 195.282 71.4935 195.282 71.4935C195.282 71.4935 198.511 90.6402 192.892 99.2205C194.888 96.7873 196.536 94.0876 197.788 91.1994C199.937 86.3018 204.121 85.8198 205.431 86.6586C206.742 87.4973 205.788 103.501 196.352 104.976C196.352 104.976 193.836 105.082 194.424 101.92C194.424 101.92 187.562 114.53 181.952 120.141C176.343 125.752 173.355 139.134 177.769 145.699C182.184 152.264 157.23 176.877 157.23 176.877L152.092 163.978C152.092 163.978 166.261 151.397 170.319 125.241Z" fill="#FDB78A"/>
<path d="M159.755 168.278C155.533 169.165 154.078 162.84 155.292 161.886C156.092 161.25 159.312 155.388 161.393 151.493C156.671 159.852 152.044 163.949 152.044 163.949L157.181 176.849C157.181 176.849 161.442 172.645 166.126 167.256C163.543 167.613 161.153 167.989 159.755 168.278Z" fill="#E78D79"/>
<path d="M163.235 148.013L163.167 148.148L163.235 148.013Z" fill="#E78D79"/>
<path d="M167.282 167.651L167.543 164.373L164.728 163.004L155.292 174.265L157.817 180.714L166.309 174.776L167.282 167.651Z" fill="#458FB9"/>
<path d="M187.292 93.6577H151.823V106.316H187.292V93.6577Z" fill="#FDB78A"/>
<path d="M169.6 105.756C178.936 105.689 186.486 103.041 186.464 99.8408C186.441 96.6409 178.853 94.101 169.517 94.1678C160.18 94.2346 152.63 96.8829 152.653 100.083C152.676 103.283 160.263 105.823 169.6 105.756Z" fill="#FDB78A"/>
<path d="M169.599 105.64C178.744 105.575 186.139 102.979 186.116 99.8434C186.094 96.7073 178.662 94.2181 169.517 94.2836C160.372 94.349 152.977 96.9444 153 100.08C153.022 103.216 160.454 105.706 169.599 105.64Z" fill="#FDB689"/>
<path d="M169.598 105.524C178.551 105.46 185.792 102.918 185.77 99.8457C185.748 96.7735 178.472 94.335 169.518 94.3991C160.565 94.4632 153.325 97.0056 153.347 100.078C153.369 103.15 160.645 105.588 169.598 105.524Z" fill="#FDB589"/>
<path d="M169.597 105.399C178.359 105.337 185.444 102.851 185.423 99.8484C185.401 96.8454 178.281 94.4619 169.519 94.5246C160.758 94.5873 153.672 97.0725 153.694 100.075C153.715 103.078 160.835 105.462 169.597 105.399Z" fill="#FDB488"/>
<path d="M169.596 105.283C178.171 105.222 185.106 102.79 185.085 99.8505C185.064 96.9115 178.095 94.5787 169.52 94.6401C160.944 94.7015 154.01 97.1338 154.031 100.073C154.052 103.012 161.021 105.345 169.596 105.283Z" fill="#FDB387"/>
<path d="M169.595 105.168C177.979 105.108 184.758 102.728 184.738 99.8531C184.717 96.978 177.904 94.6958 169.52 94.7558C161.137 94.8159 154.357 97.1953 154.378 100.07C154.398 102.946 161.211 105.228 169.595 105.168Z" fill="#FDB287"/>
<path d="M169.594 105.052C177.787 104.993 184.411 102.667 184.391 99.8554C184.371 97.0442 177.714 94.8127 169.522 94.8714C161.33 94.93 154.705 97.2565 154.725 100.068C154.745 102.879 161.402 105.11 169.594 105.052Z" fill="#FDB186"/>
<path d="M169.593 104.927C177.594 104.869 184.064 102.6 184.044 99.8581C184.024 97.1161 177.523 94.9396 169.522 94.9969C161.522 95.0542 155.052 97.3234 155.072 100.065C155.091 102.808 161.593 104.984 169.593 104.927Z" fill="#FDB085"/>
<path d="M169.593 104.811C177.401 104.755 183.716 102.539 183.697 99.8607C183.678 97.1825 177.332 95.0568 169.523 95.1127C161.714 95.1686 155.4 97.3849 155.419 100.063C155.438 102.741 161.784 104.867 169.593 104.811Z" fill="#FDAF85"/>
<path d="M169.592 104.695C177.214 104.641 183.379 102.477 183.36 99.8628C183.341 97.2486 177.147 95.1736 169.524 95.2281C161.901 95.2827 155.737 97.4462 155.756 100.06C155.775 102.675 161.969 104.75 169.592 104.695Z" fill="#FDAE84"/>
<path d="M169.591 104.579C177.022 104.526 183.031 102.416 183.013 99.8652C182.995 97.3148 176.956 95.2904 169.525 95.3436C162.094 95.3968 156.085 97.5074 156.103 100.058C156.121 102.608 162.16 104.633 169.591 104.579Z" fill="#FDAD83"/>
<path d="M169.59 104.454C176.829 104.403 182.683 102.349 182.666 99.8681C182.648 97.3869 176.765 95.4176 169.526 95.4694C162.286 95.5212 156.432 97.5746 156.45 100.056C156.468 102.537 162.351 104.506 169.59 104.454Z" fill="#FDAC83"/>
<path d="M169.589 104.339C176.637 104.288 182.336 102.288 182.319 99.8704C182.302 97.4532 176.574 95.5345 169.527 95.5849C162.479 95.6354 156.78 97.6358 156.797 100.053C156.814 102.47 162.542 104.389 169.589 104.339Z" fill="#FEAB82"/>
<path d="M169.588 104.223C176.444 104.174 181.989 102.226 181.972 99.8727C181.955 97.5194 176.383 95.6514 169.527 95.7005C162.671 95.7495 157.127 97.6971 157.144 100.05C157.161 102.404 162.732 104.272 169.588 104.223Z" fill="#FEAA81"/>
<path d="M169.587 104.098C176.257 104.05 181.651 102.159 181.635 99.8753C181.618 97.5911 176.198 95.7782 169.528 95.8259C162.859 95.8737 157.465 97.764 157.481 100.048C157.498 102.332 162.918 104.145 169.587 104.098Z" fill="#FEA981"/>
<path d="M169.587 103.982C176.065 103.936 181.303 102.098 181.288 99.8778C181.272 97.6576 176.007 95.8953 169.529 95.9417C163.051 95.988 157.812 97.8255 157.828 100.046C157.844 102.266 163.109 104.028 169.587 103.982Z" fill="#FEA880"/>
<path d="M169.586 103.866C175.872 103.821 180.956 102.036 180.941 99.8801C180.925 97.7238 175.816 96.0122 169.53 96.0572C163.243 96.1022 158.16 97.8867 158.175 100.043C158.191 102.199 163.299 103.911 169.586 103.866Z" fill="#FEA77F"/>
<path d="M169.585 103.75C175.68 103.707 180.609 101.975 180.594 99.8825C180.579 97.79 175.626 96.1291 169.531 96.1727C163.436 96.2163 158.507 97.948 158.522 100.04C158.537 102.133 163.49 103.794 169.585 103.75Z" fill="#FEA67F"/>
<path d="M169.584 103.625C175.487 103.583 180.261 101.909 180.247 99.8854C180.232 97.8621 175.435 96.2562 169.532 96.2985C163.628 96.3407 158.855 98.0152 158.869 100.038C158.884 102.062 163.681 103.668 169.584 103.625Z" fill="#FEA57E"/>
<path d="M169.583 103.509C175.3 103.468 179.923 101.847 179.909 99.8876C179.895 97.9282 175.249 96.373 169.533 96.4139C163.816 96.4549 159.193 98.0764 159.207 100.036C159.221 101.995 163.866 103.55 169.583 103.509Z" fill="#FEA47D"/>
<path d="M169.582 103.394C175.108 103.354 179.576 101.785 179.562 99.8899C179.549 97.9944 175.059 96.4899 169.533 96.5295C164.008 96.569 159.54 98.1377 159.553 100.033C159.567 101.929 164.057 103.433 169.582 103.394Z" fill="#FEA37D"/>
<path d="M169.582 103.278C174.915 103.24 179.228 101.724 179.215 99.8927C179.202 98.0611 174.868 96.6073 169.534 96.6455C164.2 96.6837 159.887 98.1994 159.9 100.031C159.914 101.863 164.248 103.316 169.582 103.278Z" fill="#FEA27C"/>
<path d="M169.581 103.153C174.723 103.116 178.881 101.658 178.868 99.8951C178.856 98.1328 174.677 96.734 169.535 96.7708C164.393 96.8076 160.235 98.2661 160.247 100.028C160.26 101.791 164.439 103.19 169.581 103.153Z" fill="#FEA17B"/>
<path d="M169.58 103.037C174.536 103.002 178.543 101.596 178.531 99.8978C178.519 98.1993 174.492 96.8512 169.536 96.8867C164.58 96.9222 160.573 98.3278 160.585 100.026C160.597 101.725 164.624 103.073 169.58 103.037Z" fill="#FEA07B"/>
<path d="M169.579 102.922C174.343 102.887 178.196 101.535 178.184 99.9001C178.172 98.2656 174.301 96.9681 169.537 97.0022C164.772 97.0363 160.92 98.389 160.932 100.024C160.943 101.658 164.815 102.956 169.579 102.922Z" fill="#FE9F7A"/>
<path d="M169.578 102.796C174.151 102.763 177.848 101.468 177.837 99.9023C177.826 98.337 174.11 97.0945 169.538 97.1273C164.965 97.16 161.268 98.4555 161.279 100.021C161.29 101.586 165.006 102.829 169.578 102.796Z" fill="#FE9D79"/>
<path d="M169.577 102.681C173.958 102.649 177.501 101.407 177.49 99.9051C177.479 98.4037 173.919 97.2119 169.538 97.2433C165.158 97.2746 161.615 98.5172 161.626 100.019C161.636 101.52 165.196 102.712 169.577 102.681Z" fill="#FE9C79"/>
<path d="M169.577 102.565C173.766 102.535 177.153 101.345 177.143 99.9074C177.133 98.4699 173.729 97.3288 169.539 97.3588C165.35 97.3888 161.962 98.5785 161.973 100.016C161.983 101.454 165.387 102.595 169.577 102.565Z" fill="#FE9B78"/>
<path d="M169.576 102.449C173.579 102.421 176.816 101.284 176.806 99.9101C176.796 98.5364 173.543 97.4461 169.54 97.4747C165.537 97.5034 162.3 98.6402 162.31 100.014C162.32 101.388 165.573 102.478 169.576 102.449Z" fill="#FE9A77"/>
<path d="M169.575 102.324C173.386 102.297 176.468 101.217 176.459 99.9126C176.45 98.6081 173.352 97.5727 169.541 97.6C165.73 97.6273 162.648 98.7069 162.657 100.011C162.666 101.316 165.764 102.351 169.575 102.324Z" fill="#FE9977"/>
<path d="M169.574 102.218C173.194 102.192 176.121 101.165 176.112 99.9244C176.103 98.6838 173.161 97.6992 169.542 97.7251C165.922 97.751 162.995 98.7776 163.004 100.018C163.013 101.259 165.954 102.243 169.574 102.218Z" fill="#FE9876"/>
<path d="M169.573 102.092C173.001 102.068 175.773 101.094 175.765 99.9174C175.757 98.7408 172.971 97.8068 169.543 97.8313C166.115 97.8558 163.343 98.8296 163.351 100.006C163.359 101.183 166.145 102.117 169.573 102.092Z" fill="#FE9775"/>
<path d="M169.572 101.986C172.809 101.963 175.426 101.042 175.418 99.9293C175.41 98.8165 172.78 97.9332 169.543 97.9563C166.307 97.9795 163.69 98.9004 163.698 100.013C163.706 101.126 166.336 102.009 169.572 101.986Z" fill="#FE9675"/>
<path d="M169.571 101.851C172.622 101.83 175.088 100.966 175.081 99.9223C175.073 98.8787 172.594 98.0505 169.544 98.0723C166.494 98.0941 164.028 98.9578 164.035 100.001C164.043 101.045 166.521 101.873 169.571 101.851Z" fill="#FE9574"/>
<path d="M169.571 101.736C172.429 101.715 174.741 100.904 174.734 99.9246C174.727 98.9449 172.404 98.1673 169.545 98.1878C166.687 98.2083 164.375 99.019 164.382 99.9987C164.389 100.978 166.712 101.756 169.571 101.736Z" fill="#FE9473"/>
<path d="M169.57 101.62C172.237 101.601 174.393 100.843 174.387 99.9274C174.38 99.0116 172.213 98.2847 169.546 98.3038C166.879 98.3229 164.723 99.0808 164.729 99.9966C164.736 100.912 166.903 101.639 169.57 101.62Z" fill="#FE9373"/>
<path d="M169.569 101.504C172.044 101.486 174.046 100.781 174.04 99.9295C174.034 99.0776 172.022 98.4014 169.547 98.4191C167.072 98.4368 165.07 99.1418 165.076 99.9937C165.082 100.846 167.094 101.522 169.569 101.504Z" fill="#FF9272"/>
<path d="M169.568 101.379C171.851 101.363 173.698 100.715 173.693 99.9322C173.687 99.1495 171.831 98.5283 169.548 98.5446C167.264 98.561 165.417 99.2087 165.423 99.9914C165.429 100.774 167.284 101.395 169.568 101.379Z" fill="#FF9171"/>
<path d="M169.567 101.264C171.665 101.248 173.361 100.654 173.355 99.9348C173.35 99.2161 171.646 98.6456 169.549 98.6606C167.451 98.6756 165.755 99.2704 165.761 99.9892C165.766 100.708 167.47 101.279 169.567 101.264Z" fill="#FF9071"/>
<path d="M169.566 101.138C171.472 101.125 173.013 100.583 173.008 99.9277C173.004 99.2728 171.455 98.7529 169.549 98.7666C167.644 98.7802 166.103 99.3222 166.107 99.9771C166.112 100.632 167.661 101.152 169.566 101.138Z" fill="#FF8F70"/>
<path d="M169.566 101.022C171.28 101.01 172.666 100.525 172.662 99.9394C172.657 99.3537 171.265 98.8889 169.55 98.9011C167.836 98.9134 166.45 99.3981 166.455 99.9838C166.459 100.569 167.852 101.034 169.566 101.022Z" fill="#FF8E6F"/>
<path d="M169.565 100.907C171.087 100.896 172.318 100.464 172.314 99.9422C172.311 99.4204 171.074 99.0062 169.551 99.0171C168.029 99.028 166.798 99.4599 166.801 99.9816C166.805 100.503 168.042 100.918 169.565 100.907Z" fill="#FF8D6F"/>
<path d="M169.554 100.801C170.89 100.791 171.971 100.412 171.967 99.9541C171.964 99.4962 170.878 99.1328 169.542 99.1424C168.206 99.1519 167.126 99.5308 167.129 99.9887C167.132 100.447 168.218 100.81 169.554 100.801Z" fill="#FF8C6E"/>
<path d="M169.563 100.675C170.708 100.667 171.633 100.341 171.63 99.9469C171.627 99.5529 170.697 99.2402 169.553 99.2484C168.408 99.2565 167.483 99.5826 167.486 99.9766C167.489 100.371 168.419 100.683 169.563 100.675Z" fill="#FF8B6D"/>
<path d="M169.552 100.579C170.505 100.572 171.276 100.303 171.273 99.9784C171.271 99.6536 170.497 99.3959 169.544 99.4027C168.591 99.4095 167.82 99.6783 167.823 100.003C167.825 100.328 168.599 100.586 169.552 100.579Z" fill="#FF8A6D"/>
<path d="M169.552 100.444C170.313 100.438 170.928 100.222 170.927 99.9614C170.925 99.7005 170.306 99.4935 169.545 99.4989C168.784 99.5044 168.168 99.7203 168.17 99.9812C168.172 100.242 168.791 100.449 169.552 100.444Z" fill="#FF896C"/>
<path d="M169.551 100.357C170.12 100.353 170.581 100.19 170.58 99.9931C170.578 99.7961 170.115 99.6397 169.546 99.6437C168.976 99.6478 168.516 99.8108 168.517 100.008C168.518 100.205 168.981 100.361 169.551 100.357Z" fill="#FF886B"/>
<path d="M169.55 100.212C169.933 100.21 170.243 100.1 170.242 99.9664C170.241 99.8333 169.93 99.7276 169.547 99.7304C169.163 99.7331 168.854 99.8433 168.855 99.9764C168.855 100.109 169.167 100.215 169.55 100.212Z" fill="#FF876B"/>
<path d="M169.549 100.087C169.741 100.086 169.896 100.033 169.895 99.9691C169.895 99.9052 169.739 99.8545 169.547 99.8559C169.356 99.8573 169.201 99.9102 169.201 99.9741C169.202 100.038 169.357 100.089 169.549 100.087Z" fill="#FF866A"/>
<path d="M162.598 110.79C163.18 109.684 163.994 108.717 164.983 107.955C165.973 107.193 167.116 106.654 168.333 106.374C171.726 105.668 175.173 105.252 178.637 105.13C178.637 105.13 175.504 114.039 169.654 116.574C163.803 119.11 162.598 110.79 162.598 110.79Z" fill="#F27F62"/>
<path d="M169.547 98.1312C169.143 97.4487 168.522 96.9217 167.782 96.635C167.043 96.3483 166.229 96.3184 165.47 96.5501C163.707 97.1382 164.005 99.5195 164.266 100.946C164.287 101.063 164.354 101.166 164.452 101.232C164.55 101.299 164.67 101.325 164.786 101.303C164.902 101.281 165.005 101.214 165.072 101.117C165.139 101.019 165.164 100.899 165.143 100.782C164.95 99.693 164.555 97.6395 166.02 97.3117C166.6 97.179 167.204 97.2048 167.771 97.3863C168.337 97.5678 168.844 97.8983 169.239 98.3433C169.355 98.5168 169.663 98.3433 169.557 98.1408L169.547 98.1312Z" fill="#943E3D"/>
<path d="M162.155 90.0135C160.883 89.0012 158.801 87.2851 157.027 87.5069C155.533 87.6997 154.868 89.435 153.48 89.8496C153.105 89.9749 153.23 90.6305 153.625 90.6209C154.859 90.6209 155.456 89.4832 156.285 88.7409C156.605 88.501 156.981 88.3468 157.378 88.2929C157.774 88.2389 158.178 88.2869 158.55 88.4324C158.246 88.8818 158.085 89.4128 158.088 89.9556C158.033 90.5281 158.204 91.0992 158.564 91.5475C158.924 91.9958 159.445 92.286 160.015 92.3562C160.544 92.3036 161.034 92.0564 161.39 91.6626C161.746 91.2688 161.943 90.7566 161.943 90.2256L160.642 89.3772C161.162 89.6857 161.606 89.9942 161.972 90.2352C162.145 90.3509 162.3 90.1292 162.155 90.0135Z" fill="#512207"/>
<path d="M188.159 88.7508C186.521 89.3099 184.911 89.9558 183.234 90.3704L182.887 90.4475C183.159 90.2114 183.405 89.9464 183.62 89.657C183.793 89.4256 183.436 89.0882 183.234 89.3099C182.527 90.0232 181.606 90.4868 180.612 90.6307C179.649 90.7946 178.685 90.5729 177.769 90.7271C177.692 90.7206 177.615 90.7374 177.547 90.7753H177.451C177.391 90.7889 177.336 90.8207 177.295 90.8665C177.253 90.9123 177.227 90.9698 177.22 91.0311C177.213 91.0924 177.224 91.1544 177.254 91.2088C177.283 91.2631 177.328 91.307 177.383 91.3345C177.382 91.3537 177.382 91.3731 177.383 91.3923C177.561 91.6136 177.796 91.7818 178.063 91.8787C178.33 91.9756 178.618 91.9975 178.897 91.9419C180 91.8711 181.096 91.7131 182.174 91.4695C184.352 91.0698 186.444 90.2899 188.352 89.1653C188.384 89.1288 188.404 89.0839 188.411 89.0361C188.417 88.9882 188.41 88.9395 188.39 88.8957C188.369 88.8519 188.337 88.8149 188.296 88.7892C188.255 88.7635 188.208 88.7501 188.159 88.7508Z" fill="#512207"/>
<path d="M155.765 82.2717C156.237 82.0404 161.104 75.4653 163.899 77.7309C166.695 79.9965 167.369 79.8615 167.234 78.801C167.099 77.7405 164.767 75.1279 162.367 75.2629C159.967 75.3978 153.548 83.3419 155.765 82.2717Z" fill="#512207"/>
<path d="M176.767 82.3684C176.767 82.3684 182.434 89.9653 190.444 87.4876C190.444 87.4876 191.716 87.0731 189.48 87.0731C187.244 87.0731 182.213 85.9355 179.543 82.0695C176.873 78.2035 175.61 81.0861 176.767 82.3684Z" fill="#512207"/>
<path d="M203.957 87.6996C202.819 88.0756 201.875 89.811 201.239 90.7172C200.275 92.0669 199.436 93.4841 198.55 94.882C198.039 95.6822 197.441 96.4535 196.873 97.2344C196.829 97.2537 196.792 97.2846 196.764 97.3237C196.737 97.3628 196.721 97.4086 196.718 97.4561C196.323 97.9852 195.963 98.5391 195.639 99.1144C195.606 99.1627 195.592 99.2214 195.599 99.2795C195.606 99.3375 195.634 99.391 195.677 99.43C195.721 99.4689 195.777 99.4907 195.836 99.4911C195.894 99.4916 195.951 99.4708 195.995 99.4325C196.451 99.0861 196.865 98.6881 197.229 98.2467C197.607 98.7059 198.113 99.0427 198.683 99.2143C199.253 99.3859 199.86 99.3847 200.429 99.2108C201.078 98.9055 201.647 98.4528 202.091 97.8888C202.534 97.3247 202.84 96.6649 202.983 95.9618C203.166 95.1713 203.263 92.925 202.019 92.896C201.422 92.896 200.66 93.5902 200.246 93.9661C200.053 94.1527 199.87 94.349 199.697 94.5542L200.005 94.0433C200.612 93.0792 201.219 92.1151 201.875 91.151C202.203 90.6786 202.54 90.187 202.887 89.7724L203.369 89.1843C203.521 88.9194 203.721 88.6842 203.957 88.4902C204.227 88.1752 204.548 88.2267 204.921 88.6444C204.921 88.9144 205.335 88.9626 205.345 88.6444C205.359 88.4742 205.328 88.3032 205.254 88.149C205.181 87.9947 205.068 87.8628 204.927 87.7667C204.785 87.6706 204.621 87.6137 204.451 87.6019C204.28 87.5901 204.11 87.6238 203.957 87.6996ZM198.858 96.2703C199.399 95.3805 200.083 94.5857 200.882 93.918C201.203 93.4873 201.525 93.4616 201.846 93.8408C202.199 93.8987 202.363 94.0883 202.338 94.4096C202.419 94.9705 202.349 95.5431 202.135 96.0679C201.827 96.9604 201.221 97.7197 200.419 98.2178C199.35 98.8058 198.492 98.2178 197.701 97.6007C198 97.1958 198.27 96.7716 198.54 96.3378C198.587 96.3637 198.641 96.3712 198.693 96.3587C198.745 96.3462 198.79 96.3146 198.819 96.2703H198.858Z" fill="#F27F62"/>
<path d="M138.878 205.906C136.344 202.252 135.016 197.896 135.081 193.45L130.31 191.348L127.813 188.677L123.563 191.57L122.695 192.437L121.461 193.401V199.09C122.156 198.28 122.68 197.339 123.004 196.323L125.307 196.785L126.02 198.482C126.02 198.482 126.685 204.325 127.611 205.867C128.536 207.41 132.122 207.149 132.893 207.969L138.676 206.176L138.878 205.906Z" fill="#FDB78A"/>
<path d="M127.813 188.677L123.563 191.57L122.695 192.437L121.461 193.401V199.09C122.156 198.28 122.68 197.339 123.004 196.323L125.307 196.785L126.02 198.482C126.02 198.482 126.685 204.325 127.611 205.867C128.093 206.677 129.317 206.985 130.502 207.217C130.502 207.217 127.428 206.378 126.965 200.835C126.874 199.581 126.72 198.332 126.502 197.094C126.348 196.891 125.731 196.13 125.731 196.13L122.705 195.927C122.705 195.927 122.396 194.231 122.753 194.182C124.046 194.611 125.308 195.127 126.531 195.725C126.531 195.725 126.984 195.725 126.531 195.108C126.078 194.491 122.907 193.517 122.907 193.517C122.907 193.517 122.705 192.727 123.62 192.958C124.536 193.189 130.184 194.751 130.184 194.501C130.184 194.25 124.131 192.572 124.131 192.572C124.131 192.572 123.466 191.242 125.461 191.608C127.457 191.975 130.695 191.965 132.43 192.784C134.165 193.604 134.425 193.604 134.579 195.195C134.734 196.785 135.466 200.902 137.538 203.592C135.873 200.436 135.031 196.911 135.09 193.344L130.319 191.242C130.319 191.242 125.972 191.358 125.548 190.885C125.124 190.413 127.813 188.677 127.813 188.677Z" fill="#E78D79"/>
<path d="M141.519 210.283C141.712 209.801 142.859 196.891 142.859 196.891C142.859 196.891 134.695 193.508 134.136 185.245C135.024 187.767 136.506 190.038 138.457 191.866C140.408 193.693 142.771 195.024 145.345 195.744L144.102 197.374L143.244 210.871L141.519 210.283Z" fill="#166B93"/>
<path d="M181.017 151.252L180.294 150.037L170.656 161.789L168.295 158.617L165.403 160.199L155.928 173.696C155.928 173.696 162.55 165.983 163.504 165.289C164.459 164.595 167.678 165.867 168.179 167.583C168.68 169.299 170.974 171.025 172.034 171.44C173.095 171.854 178.714 153.17 181.017 151.252Z" fill="#166B93"/>
<path d="M182.27 183.78C182.617 183.453 174.232 194.115 174.328 197.277C174.425 200.44 173.239 214.448 173.239 214.448L172.42 216.694L173.567 196.892C175.536 191.969 178.499 187.506 182.27 183.78Z" fill="#166B93"/>
<path d="M178.155 140.724C178.155 140.724 177.191 147.993 166.387 158.81L155.938 173.725C155.938 173.725 165.818 160.054 166.541 160.054C167.264 160.054 169.027 157.952 170.174 165.838C171.321 173.725 172.372 171.102 172.372 171.102C172.372 171.102 178.213 152.023 180.507 150.509C180.555 150.461 179.312 138.526 178.155 140.724Z" fill="#458FB9"/>
<path d="M200.429 87.6612L196.651 84.3833H145.904L147.042 85.8969C147.042 85.8969 147.61 100.098 154.801 100.667C161.991 101.235 168.429 87.0249 168.429 87.0249H172.217C172.217 87.0249 174.299 100.474 182.819 100.657C191.34 100.84 194.386 86.8321 194.386 86.8321L195.542 85.5691L198.704 89.5122L200.429 87.6612ZM155.562 99.153C148.179 100.291 149.123 86.0897 149.123 86.0897H166.733C166.733 86.0897 162.945 98.0154 155.562 99.153ZM183.099 99.5772C175.456 99.6833 173.904 86.0801 173.904 86.0801H192.892C192.892 86.0801 190.733 99.4808 183.099 99.5772Z" fill="black"/>
<path d="M182.261 105.092C181.731 104.908 181.186 104.772 180.632 104.687C179.999 104.432 179.442 104.021 179.012 103.491C178.964 103.434 178.896 103.397 178.821 103.386C178.747 103.376 178.671 103.393 178.608 103.434C178.545 103.476 178.5 103.539 178.48 103.611C178.461 103.684 178.468 103.761 178.502 103.829C178.611 104.047 178.747 104.251 178.906 104.436C176.528 106.533 173.814 108.215 170.878 109.411C167.736 110.683 163.678 111.397 160.603 109.314C160.227 109.064 159.514 110.172 159.813 110.519C160.863 111.734 163.013 111.888 164.497 111.85C166.396 111.753 168.265 111.343 170.029 110.635C173.452 109.327 176.55 107.291 179.109 104.667C179.415 104.963 179.766 105.207 180.15 105.39C180.747 105.68 181.692 105.969 182.261 105.516C182.294 105.492 182.322 105.46 182.341 105.423C182.36 105.386 182.37 105.345 182.37 105.304C182.37 105.262 182.36 105.221 182.341 105.184C182.322 105.147 182.294 105.116 182.261 105.092Z" fill="#943E3D"/>
<g style="mix-blend-mode:color">
<path d="M148.141 85.2508C148.141 85.2508 148.044 101.322 155.418 100.001C162.791 98.6805 168.381 85.5979 168.381 85.5979L172.613 86.0896C172.613 86.0896 174.463 102.681 184.179 99.9917C193.894 97.3019 193.393 85.2412 193.393 85.2412L148.141 85.2508Z" fill="#D6F7FF"/>
</g>
<path d="M151.505 157.084L155.938 173.426L152.844 173.725L151.505 157.084Z" fill="#458FB9"/>
<path d="M155.938 173.725C155.938 173.725 153.403 180.984 152.083 181.563C150.762 182.141 147.264 189.054 147.264 189.054C147.51 191.48 148.373 193.803 149.77 195.802L149.008 208.335L150.444 196.072C150.444 196.072 147.244 190.201 147.62 188.899C147.996 187.598 150.685 182.97 151.63 182.585C152.574 182.199 155.321 177.446 155.938 173.725Z" fill="#166B93"/>
<path d="M156.863 175.219C157.199 175.219 157.471 174.93 157.471 174.573C157.471 174.216 157.199 173.927 156.863 173.927C156.528 173.927 156.256 174.216 156.256 174.573C156.256 174.93 156.528 175.219 156.863 175.219Z" fill="#073C54"/>
<path d="M153.239 183.047C153.506 183.047 153.721 182.793 153.721 182.478C153.721 182.164 153.506 181.91 153.239 181.91C152.973 181.91 152.758 182.164 152.758 182.478C152.758 182.793 152.973 183.047 153.239 183.047Z" fill="#073C54"/>
<path d="M149.924 190.076C150.2 190.076 150.425 189.847 150.425 189.565C150.425 189.283 150.2 189.054 149.924 189.054C149.647 189.054 149.422 189.283 149.422 189.565C149.422 189.847 149.647 190.076 149.924 190.076Z" fill="#073C54"/>
</g>
<rect x="22.4373" y="241.153" width="63.0474" height="1.51352" rx="0.75676" fill="#FFB479"/>
<ellipse cx="145.203" cy="171.027" rx="10.592" ry="10.5946" fill="#EDEDED"/>
<path d="M145.506 173.146C146.511 173.146 147.316 172.335 147.316 171.33L147.322 167.697C147.322 166.692 146.511 165.881 145.506 165.881C144.501 165.881 143.69 166.692 143.69 167.697V171.33C143.69 172.335 144.501 173.146 145.506 173.146ZM148.714 171.33C148.714 173.146 147.177 174.417 145.506 174.417C143.836 174.417 142.298 173.146 142.298 171.33H141.269C141.269 173.4 142.916 175.101 144.901 175.398V177.384H146.111V175.398C148.097 175.107 149.743 173.4 149.743 171.33H148.714Z" fill="#727272"/>
<ellipse cx="185.049" cy="171.027" rx="10.592" ry="10.5946" fill="#EB5757"/>
<g clip-path="url(#clip0)">
<path d="M185.352 169.514C184.384 169.514 183.446 169.665 182.568 169.949V171.826C182.568 172.062 182.429 172.274 182.229 172.371C181.636 172.668 181.097 173.049 180.619 173.491C180.51 173.6 180.359 173.661 180.195 173.661C180.026 173.661 179.875 173.594 179.766 173.485L178.265 171.984C178.156 171.881 178.089 171.729 178.089 171.56C178.089 171.39 178.156 171.239 178.265 171.13C180.111 169.38 182.604 168.303 185.352 168.303C188.1 168.303 190.594 169.38 192.44 171.13C192.549 171.239 192.615 171.39 192.615 171.56C192.615 171.729 192.549 171.881 192.44 171.99L190.939 173.491C190.83 173.6 190.678 173.667 190.509 173.667C190.346 173.667 190.194 173.6 190.085 173.497C189.607 173.049 189.062 172.674 188.469 172.377C188.27 172.28 188.13 172.074 188.13 171.832V169.955C187.259 169.665 186.321 169.514 185.352 169.514Z" fill="white"/>
</g>
<ellipse cx="105.156" cy="171.027" rx="10.592" ry="10.5946" fill="#00CABA"/>
<g clip-path="url(#clip1)">
<path d="M105.458 166.789C102.432 166.789 99.8476 168.672 98.8005 171.33C99.8476 173.988 102.432 175.87 105.458 175.87C108.485 175.87 111.069 173.988 112.116 171.33C111.069 168.672 108.485 166.789 105.458 166.789ZM105.458 174.357C103.788 174.357 102.432 173.001 102.432 171.33C102.432 169.659 103.788 168.303 105.458 168.303C107.129 168.303 108.485 169.659 108.485 171.33C108.485 173.001 107.129 174.357 105.458 174.357ZM105.458 169.514C104.454 169.514 103.643 170.325 103.643 171.33C103.643 172.335 104.454 173.146 105.458 173.146C106.463 173.146 107.274 172.335 107.274 171.33C107.274 170.325 106.463 169.514 105.458 169.514Z" fill="white"/>
</g>
<path d="M52.132 51.6101L53.3323 59.7215L38.3386 86.8735L32.7142 52.8901L52.132 51.6101Z" fill="#CD8C60"/>
<path d="M26.4301 32.7234C26.4301 32.7234 23.2508 30.2428 22.6061 30.481C21.9613 30.7191 20.1261 33.3733 21.2719 35.7695C22.4176 38.1657 26.9211 37.3223 26.9211 37.3223L26.4301 32.7234Z" fill="#ECB584"/>
<path d="M49.6621 27.8068C49.6621 27.8068 50.9715 24.0066 51.646 23.8379C52.3206 23.6692 55.3163 24.8847 55.6635 27.524C56.0107 30.1633 51.7948 31.9245 51.7948 31.9245L49.6621 27.8068Z" fill="#DB9769"/>
<path d="M46.9638 15.7664C46.9638 15.7664 48.1492 26.2492 52.2362 31.3889L53.4414 39.8227L39.9208 53.0441L27.0252 44.1736L25.9588 37.0545C25.9588 37.0545 26.1523 25.257 22.1844 19.9536L20.6369 16.2874L25.4926 11.9712L41.5725 7.15894L47.0878 11.0584L46.9638 15.7664Z" fill="#DB9769"/>
<path d="M25.9589 37.0544C25.9589 37.0544 26.1523 25.2569 22.1845 19.9535L20.637 16.2873L25.4927 11.9711L32.5059 9.87256L33.7608 15.7217C33.7608 15.7217 35.8191 16.6296 36.3052 18.3163C36.7912 20.0031 38.9438 28.2881 39.4844 28.9579C40.0251 29.6276 40.1292 32.1082 44.7518 31.9891C44.7518 31.9891 41.0567 36.4541 37.9717 36.1316H37.8378H37.9717C38.3353 36.1603 38.6776 36.3146 38.94 36.568C39.2025 36.8214 39.3686 37.1582 39.41 37.5207C39.5539 38.8701 42.6389 42.6306 42.6389 42.6306L53.0794 37.3024L53.4365 39.783L39.916 53.0043L27.0203 44.1338L25.9589 37.0544Z" fill="#ECB584"/>
<path d="M39.2463 28.5165C39.1819 28.5612 36.0621 28.2982 35.5959 29.2706C35.5959 29.2706 36.2208 36.0524 28.781 34.3358L30.3186 34.1324L32.129 33.9489L33.7012 32.8475L35.0305 30.1735L34.837 28.4719L36.6474 27.4796L39.1273 27.4399L39.2463 28.5165Z" fill="#DB9769"/>
<path d="M36.5879 18.7581C36.5879 18.7581 38.5272 29.0672 40.0598 30.625C40.9663 31.5502 42.1687 32.1278 43.4573 32.2572C43.4573 32.2572 40.4418 37.3572 34.1279 35.3033C34.1279 35.3033 40.4219 39.6393 44.7419 31.9992C44.7419 31.9992 41.1659 32.3018 40.0152 29.6328C38.8645 26.9637 39.1026 27.5342 36.5879 18.7581Z" fill="url(#paint6_linear)"/>
<path d="M33.8054 22.0371C33.8054 22.0371 34.1377 22.2355 34.4353 23.3964C34.7329 24.5573 35.095 26.3086 35.095 26.3086L25.0513 26.4475L33.8054 22.0371Z" fill="#DB9769"/>
<path d="M31.3404 12.0259C31.5239 12.4575 32.3324 13.1322 31.4594 13.5143C28.6373 15.2258 24.8975 14.7843 22.9384 12.5716C22.7172 12.3485 22.5164 12.1061 22.3383 11.8473C25.7754 8.78634 29.3961 2.3915 27.2336 0.0151367C27.2336 0.0151367 37.446 0.139172 44.2707 4.76787C44.439 5.35373 44.4235 5.97713 44.2261 6.55385C42.6836 11.257 36.5483 12.3484 31.3404 12.0259Z" fill="#78461B"/>
<path d="M22.0307 12.1001L22.3382 11.8322C22.5163 12.091 22.7172 12.3333 22.9383 12.5565C24.8975 14.7691 28.6322 15.2057 31.4594 13.4991C32.3174 13.132 31.5238 12.4572 31.3403 12.0107C36.5531 12.3283 42.6835 11.2418 44.236 6.52379C44.4333 5.94707 44.4489 5.32365 44.2806 4.73779C45.7508 5.70595 47.033 6.93306 48.065 8.3594C48.065 8.3594 49.6521 12.998 47.073 16.4658C47.073 16.4658 46.577 11.9611 45.1783 11.7032C43.7796 11.4452 37.0541 12.879 33.7707 15.7117C33.7707 15.7117 24.5602 15.9102 23.7964 16.4063C23.0326 16.9024 22.3531 19.8493 22.6259 20.4942L19.6499 18.1575C19.6499 18.1575 18.5191 15.037 22.0307 12.1001Z" fill="#5B3617"/>
<path d="M27.2336 0L28.1958 0.272854C28.8108 0.441531 29.6838 0.714395 30.7154 1.03687C31.7471 1.35934 32.9573 1.7711 34.2369 2.22752C35.5166 2.68394 36.8657 3.21975 38.1751 3.82996C38.8347 4.12763 39.4845 4.44018 40.1094 4.77753C40.7228 5.10339 41.3188 5.46108 41.8949 5.84913C42.1777 6.03269 42.4306 6.24602 42.6984 6.42462C42.9663 6.60322 43.1944 6.8215 43.4226 7.02987C43.6431 7.22913 43.8518 7.44116 44.0475 7.66489L44.3253 7.98736C44.4096 8.0965 44.484 8.2106 44.5584 8.31974C44.7063 8.52711 44.8341 8.74805 44.9403 8.97957C45.0437 9.18429 45.1267 9.39864 45.1883 9.61956C45.2926 9.99033 45.3312 10.3765 45.3024 10.7606C45.2988 11.0052 45.2655 11.2484 45.2032 11.4849L45.1486 11.7429L45.228 11.4948C45.3155 11.2621 45.3705 11.0183 45.3916 10.7705C45.4412 10.3835 45.4244 9.99096 45.342 9.60963C45.237 9.11059 45.0421 8.63484 44.7667 8.20564C44.6923 8.08658 44.6229 7.96255 44.5386 7.84348L44.2658 7.49621C44.0727 7.25446 43.8657 7.0242 43.6458 6.80661C43.4226 6.5784 43.1498 6.37005 42.9216 6.1468C42.6935 5.92355 42.3909 5.73006 42.1082 5.53658C41.5263 5.13168 40.9237 4.75743 40.3028 4.41537C39.6729 4.05817 39.0182 3.7357 38.3536 3.42315C37.0194 2.82286 35.6505 2.30195 34.356 1.86041C33.0614 1.41887 31.8264 1.08153 30.775 0.798743C29.7235 0.515961 28.8257 0.33239 28.2008 0.198441C27.5758 0.0644911 27.2336 0 27.2336 0Z" fill="#4C2E14"/>
<path d="M27.8834 2.06885L28.548 2.3665C28.9696 2.55502 29.54 2.86261 30.274 3.19004C31.0081 3.51748 31.7967 3.97389 32.6548 4.46008C33.5483 4.96404 34.4142 5.51552 35.2488 6.11213C35.6704 6.41972 36.092 6.73226 36.4739 7.06962C36.8564 7.39318 37.2206 7.73768 37.565 8.10153C37.7337 8.27517 37.8775 8.46369 38.0362 8.63732C38.1949 8.81096 38.3239 8.99949 38.4429 9.18305C38.6796 9.5264 38.8791 9.89393 39.0381 10.2794C39.1124 10.4499 39.1737 10.6257 39.2216 10.8053C39.275 10.9671 39.3148 11.133 39.3407 11.3014C39.3407 11.4552 39.3952 11.6041 39.4002 11.743V12.12C39.3979 12.2976 39.3846 12.4749 39.3605 12.6508V12.8394L39.4051 12.6558C39.4546 12.4821 39.4894 12.3045 39.5093 12.125L39.5391 11.738C39.5391 11.5941 39.5391 11.4453 39.5391 11.2816C39.5124 10.9124 39.4356 10.5486 39.3109 10.2001C39.1682 9.78629 38.982 9.38884 38.7554 9.01437C38.6413 8.81097 38.4975 8.62243 38.3636 8.41407C38.2297 8.2057 38.061 8.02711 37.8924 7.83363C37.5505 7.44377 37.1826 7.07747 36.7913 6.73723C36.3995 6.385 35.9729 6.05756 35.5414 5.74502C34.6903 5.14065 33.7987 4.5953 32.873 4.11281C31.9902 3.64647 31.1371 3.27439 30.3931 2.9668C29.6491 2.65922 29.0291 2.47069 28.5927 2.29705C28.1562 2.12342 27.8834 2.06885 27.8834 2.06885Z" fill="#4C2E14"/>
<path d="M26.6383 6.16162L26.9409 6.57835C27.1392 6.84129 27.412 7.22329 27.7592 7.66483L28.9347 9.18787L30.3036 10.9094L31.6775 12.6259C32.109 13.1766 32.5257 13.6826 32.853 14.1142L33.2944 14.7344C33.4234 14.9229 33.5226 15.0916 33.602 15.2305C33.6616 15.341 33.7098 15.4574 33.7458 15.5778C33.7483 15.6224 33.7483 15.6671 33.7458 15.7117C33.7485 15.6671 33.7485 15.6224 33.7458 15.5778C33.7329 15.4487 33.7029 15.3219 33.6565 15.2007C33.49 14.774 33.2841 14.3638 33.0415 13.9753C32.7439 13.4792 32.3917 12.9335 31.9751 12.363C31.5585 11.7925 31.1071 11.1922 30.6409 10.6018C30.1747 10.0114 29.6886 9.44089 29.2224 8.91005C28.7562 8.37922 28.3098 7.91784 27.9279 7.48622C27.546 7.05461 27.2087 6.74702 26.9805 6.49401C26.7524 6.24099 26.6383 6.16162 26.6383 6.16162Z" fill="#4C2E14"/>
<path d="M23.7122 10.4431C23.7122 10.4431 23.9205 10.8351 24.2776 11.3857C24.6347 11.9364 25.1406 12.6508 25.6812 13.3404C26.2219 14.03 26.7873 14.6898 27.2386 15.171C27.69 15.6523 28.0173 15.9499 28.0173 15.9499C28.0173 15.9499 27.809 15.558 27.4519 15.0073C27.0948 14.4566 26.5889 13.7422 26.0483 13.0527C25.5076 12.3631 24.9373 11.7032 24.4909 11.222C24.0445 10.7408 23.7122 10.4431 23.7122 10.4431Z" fill="#4C2E14"/>
<path d="M20.8404 13.2957C20.8754 13.5344 20.9353 13.7688 21.0189 13.9952C21.1 14.2269 21.1978 14.4524 21.3116 14.6699C21.4438 14.9217 21.5964 15.1623 21.7679 15.3892C21.9434 15.62 22.1466 15.8282 22.373 16.0094C22.4774 16.0967 22.5904 16.1731 22.7102 16.2376C22.8152 16.2993 22.9266 16.3492 23.0425 16.3864C23.1401 16.421 23.2419 16.4427 23.3451 16.4509C23.4222 16.4651 23.5012 16.4651 23.5782 16.4509L23.7766 16.4261L23.5881 16.3616C23.5183 16.343 23.4516 16.3146 23.3897 16.2773C23.3085 16.2372 23.2305 16.1908 23.1566 16.1384C23.0688 16.0787 22.9843 16.0141 22.9037 15.9449C22.8194 15.8655 22.7301 15.7911 22.6458 15.6968C22.5614 15.6026 22.4722 15.5133 22.3878 15.4091C22.3035 15.3049 22.2192 15.2057 22.1349 15.0965C21.9613 14.8882 21.8125 14.66 21.6389 14.4516L21.2322 13.8662C20.9991 13.5288 20.8404 13.2957 20.8404 13.2957Z" fill="#4C2E14"/>
<path d="M34.5989 25.9217C34.5989 25.9217 34.0235 22.2356 33.8053 22.0372C33.5871 21.8387 32.0396 20.5488 32.0396 20.5488L25.7108 23.0294L25.0512 26.4128L34.5989 25.9217Z" fill="#5B3617"/>
<path d="M52.2462 31.3889C52.2462 31.3889 64.7252 42.5017 51.8147 52.7761C38.9042 63.0505 28.7662 53.3318 27.0154 49.5613C25.2646 45.7909 25.0315 38.9694 25.9689 35.9729L32.0794 40.5272L38.3586 37.8879L39.5291 37.5357L43.4325 38.0963L50.7582 34.6632C50.7582 34.6632 52.5339 32.7829 52.0676 31.1904L52.2462 31.3889Z" fill="#5B3617"/>
<path d="M53.3323 33.408C53.3323 33.408 51.5814 40.7553 45.1237 41.8418C44.0098 41.9523 42.888 41.7322 41.8983 41.2091C40.9087 40.6859 40.095 39.8827 39.5588 38.8999C39.5588 38.8999 37.7682 43.3004 33.964 43.0424C30.1598 42.7844 25.6612 37.3471 25.6612 37.3471L38.6213 37.8432L40.5656 37.4264L53.3323 33.408Z" fill="#462A13"/>
<path d="M50.9119 27.8318C50.9119 27.8318 51.4426 25.6787 52.1569 25.5199C52.8711 25.3612 55.1328 26.5122 54.3689 28.3874C53.6051 30.2627 51.6807 30.9325 51.9783 29.6624C52.2759 28.3924 51.7948 28.1741 51.3236 28.3577C50.8524 28.5412 50.8623 28.0302 50.9119 27.8318Z" fill="#B5673B"/>
<path d="M39.524 37.5505L53.3323 33.4229C53.3323 33.4229 50.5994 39.9516 45.6296 41.0679C40.6598 42.1841 39.524 37.5505 39.524 37.5505Z" fill="#683D19"/>
<path d="M51.7501 36.2158L52.0378 36.6623C52.2213 36.9451 52.4644 37.3618 52.752 37.8579C53.0397 38.354 53.3571 38.9494 53.6795 39.5844C54.0019 40.2194 54.3293 40.914 54.612 41.6234C54.7657 41.9707 54.9046 42.3279 55.0336 42.6801C55.1625 43.0324 55.2865 43.3796 55.4006 43.717C55.5147 44.0543 55.6139 44.3867 55.7081 44.7092C55.8023 45.0317 55.8867 45.3244 55.9511 45.6022L56.1446 46.3662L56.2636 46.9615C56.333 47.2939 56.3777 47.4577 56.3777 47.4577C56.3777 47.4577 56.3777 47.2642 56.3777 46.9268L56.343 46.3166C56.343 46.0785 56.2884 45.8205 56.2487 45.5278C56.2126 45.2156 56.1579 44.9058 56.0851 44.6001C56.0156 44.2726 55.9462 43.9254 55.8371 43.5781C55.7279 43.2308 55.6436 42.8587 55.4998 42.5015C55.356 42.1443 55.2419 41.7722 55.0832 41.415C54.9244 41.0578 54.7657 40.7006 54.5872 40.3583C54.4086 40.016 54.2301 39.6886 54.0614 39.3661C53.7336 38.7879 53.3743 38.2281 52.9851 37.6893C52.6479 37.1932 52.3304 36.8459 52.1122 36.5879C51.894 36.3299 51.7501 36.2158 51.7501 36.2158Z" fill="#4C2E14"/>
<path d="M47.9955 40.7256L48.7395 42.6158C48.9627 43.1813 49.2057 43.8461 49.4586 44.5605C49.7116 45.2749 49.9546 46.0488 50.2076 46.8079C50.3365 47.1899 50.4357 47.5818 50.5498 47.9589L50.8375 49.085L51.0706 50.1467L51.2243 51.1091L51.3087 51.9277C51.3326 52.1385 51.3426 52.3507 51.3384 52.5628V53.1234C51.3384 53.1234 51.3731 52.9249 51.4178 52.5677C51.4518 52.3543 51.4717 52.1388 51.4773 51.9228C51.4773 51.6747 51.4773 51.3919 51.4773 51.0843L51.4029 50.0921C51.3533 49.7448 51.3087 49.3728 51.2442 48.9957C51.1797 48.6187 51.0954 48.2268 50.9912 47.8398C50.8871 47.4528 50.7879 47.051 50.6639 46.664C50.4159 45.8851 50.1679 45.1112 49.8455 44.4067C49.5231 43.7022 49.2404 43.0573 48.9726 42.5066C48.7047 41.9559 48.4419 41.5144 48.2683 41.2068C48.0947 40.8992 47.9955 40.7256 47.9955 40.7256Z" fill="#4C2E14"/>
<path d="M40.1142 46.7334C40.1142 46.7334 40.0746 46.8822 40.0101 47.1452C39.9456 47.4081 39.8613 47.7851 39.772 48.2366C39.5885 49.1445 39.3851 50.355 39.2264 51.5754C39.0677 52.7958 38.9487 54.0212 38.8892 54.944C38.8544 55.4054 38.8495 55.7923 38.8346 56.0602C38.8197 56.3281 38.8346 56.4869 38.8346 56.4869C38.8346 56.4869 38.8743 56.3381 38.9388 56.0751C39.0032 55.8122 39.0925 55.4351 39.1768 54.9837C39.3603 54.0758 39.5637 52.8653 39.7224 51.6449C39.8811 50.4244 40.0002 49.1991 40.0597 48.2763C40.0944 47.8149 40.0994 47.4279 40.1142 47.16C40.1291 46.8921 40.1142 46.7334 40.1142 46.7334Z" fill="#4C2E14"/>
<path d="M34.3312 42.7197C34.3312 42.7197 34.2717 42.9231 34.1924 43.2902C34.113 43.6574 34.0039 44.1733 33.9146 44.8083C33.8253 45.4434 33.7261 46.1776 33.6815 46.9763C33.6369 47.7751 33.617 48.6284 33.6369 49.4817C33.6369 49.9083 33.6914 50.335 33.7162 50.7567C33.741 51.1784 33.8204 51.5852 33.87 51.9821C33.9196 52.379 34.0237 52.756 34.1031 53.1182L34.3858 54.1104C34.49 54.413 34.604 54.6859 34.7032 54.929C34.7876 55.1368 34.8853 55.339 34.9959 55.5342C35.1695 55.8616 35.2786 56.0303 35.2786 56.0303L35.0851 55.4796C35.002 55.2744 34.9324 55.0639 34.8768 54.8496C34.8123 54.6015 34.7379 54.3188 34.6536 54.0211L34.4552 53.0289L34.3015 51.9077L34.1924 50.7021C34.1924 50.2903 34.1328 49.8736 34.1328 49.4519C34.1328 49.0302 34.1031 48.6135 34.1328 48.1968C34.1626 47.78 34.1328 47.3732 34.1328 46.9813C34.1328 46.1925 34.1725 45.4533 34.2072 44.8183C34.242 44.1832 34.2668 43.6574 34.3015 43.2853L34.3312 42.7197Z" fill="#4C2E14"/>
<path d="M28.7215 40.031C28.5162 40.6364 28.3505 41.2546 28.2255 41.8815C28.1015 42.4471 27.9973 43.1118 27.913 43.8262C27.8279 44.5758 27.7815 45.3292 27.7741 46.0835C27.7687 46.8395 27.8101 47.595 27.8981 48.3458C27.9317 48.6922 27.983 49.0366 28.0519 49.3777C28.1114 49.7051 28.166 50.0127 28.2453 50.2905C28.3247 50.5684 28.3891 50.8263 28.4536 51.0496L28.657 51.6201C28.7711 51.9376 28.8455 52.1162 28.8455 52.1162C28.8455 52.1162 28.8157 51.9277 28.7512 51.6201L28.6322 51.0297C28.6024 50.7966 28.5677 50.5336 28.5231 50.2608C28.4784 49.9879 28.4536 49.6704 28.4139 49.3479C28.3743 49.0255 28.3544 48.6831 28.3296 48.3309C28.3048 47.9787 28.2949 47.6115 28.28 47.2395C28.2651 46.8674 28.28 46.4903 28.28 46.1133C28.28 45.7363 28.28 45.3543 28.28 44.9822L28.3346 43.8858C28.3842 43.1763 28.4338 42.5115 28.4933 41.946C28.5528 41.3804 28.5975 40.9042 28.6471 40.5718L28.7215 40.031Z" fill="#4C2E14"/>
<path d="M39.415 37.5505L25.0612 36.2556C25.0612 36.2556 29.0291 42.1097 34.1328 42.2089C39.2365 42.3081 39.415 37.5505 39.415 37.5505Z" fill="#683D19"/>
<path d="M52.8911 48.7923L49.0323 54.7059C49.0323 54.7059 46.4334 56.0057 46.1011 56.0801C45.7688 56.1546 45.1885 54.6216 45.1885 54.6216L51.9686 48.3706L52.8911 48.7923Z" fill="#462A13"/>
<path d="M36.3499 56.8045C36.3003 56.8045 34.3312 52.3841 34.0981 52.2254C33.865 52.0666 34.728 56.2339 34.728 56.2339L36.3499 56.8045Z" fill="#462A13"/>
<path d="M24.8975 33.1698C24.8975 33.1698 23.2756 31.6814 22.5812 31.9245C21.8868 32.1676 20.632 34.4051 22.3035 35.5362C23.9749 36.6673 25.949 36.1861 25.0016 35.2882C24.0543 34.3902 24.3321 33.9338 24.833 33.8395C25.3339 33.7453 25.0512 33.3087 24.8975 33.1698Z" fill="#DB9769"/>
<path d="M46.7903 21.2087L45.9174 17.984L45.2329 17.4531C45.2329 17.4531 38.418 19.0556 38.0262 19.0357C37.4257 18.9258 36.8326 18.7784 36.2506 18.5942C36.2506 18.5942 37.9221 23.6049 38.0758 23.8083L38.9537 24.8005L46.7903 21.2087Z" fill="#5B3617"/>
<path opacity="0.69" d="M40.3921 23.4164L41.6965 22.325L43.2093 21.675H44.8064L45.957 21.8338C45.957 21.8884 46.6018 22.5978 47.0879 23.1336C44.6328 23.5206 42.128 24.3937 39.6977 24.4979L40.3921 23.4164Z" fill="#E5F3FF"/>
<path opacity="0.69" d="M39.6035 24.6517L39.6829 24.5276C42.0933 24.4234 44.6427 23.5354 47.073 23.1633L47.3062 23.4213C44.5931 23.585 42.0983 24.2746 39.6035 24.9692V24.6517Z" fill="white"/>
<path opacity="0.69" d="M39.6283 26.3583C42.5249 25.9218 45.5107 25.3165 48.3577 24.9692L48.7197 25.5596L48.6602 25.8622C45.8083 26.4377 42.6637 26.9239 39.7325 27.4746L39.6283 26.3583Z" fill="white"/>
<path opacity="0.69" d="M48.6702 25.8572C48.5303 26.4759 48.4391 27.1045 48.3974 27.7374C48.1038 28.3911 47.7726 29.0272 47.4054 29.6425L45.3867 30.8927L43.5466 31.0217C43.5466 31.0217 41.8206 30.3966 41.7512 30.3569C41.6817 30.3172 39.8218 28.4816 39.8218 28.4816L39.7226 27.4646C42.6687 26.9189 45.7984 26.4376 48.6702 25.8572Z" fill="#E5F3FF"/>
<path opacity="0.69" d="M39.6132 26.1797V24.9592C42.0931 24.2696 44.5979 23.5751 47.3159 23.4114L47.6283 23.7537L48.3723 24.9642C45.5204 25.3115 42.5346 25.9217 39.643 26.3533L39.6132 26.1797Z" fill="#E5F3FF"/>
<path opacity="0.69" d="M26.8716 26.9236L28.176 25.8322L29.6888 25.2021H31.271L32.4216 25.3609C32.4216 25.4155 33.0664 26.1249 33.5525 26.6607C31.0974 27.0477 28.5926 27.9208 26.1623 28.025L26.8716 26.9236Z" fill="#E5F3FF"/>
<path opacity="0.69" d="M26.083 28.1541L26.1623 28.0301C28.5728 27.9259 31.1222 27.0379 33.5525 26.6658L33.7856 26.9237C31.0726 27.0825 28.5778 27.7771 26.083 28.4716V28.1541Z" fill="white"/>
<path opacity="0.69" d="M26.1127 29.8657C29.0092 29.4291 31.9951 28.8238 34.842 28.4766L35.2041 29.0669L35.1495 29.3696C32.2976 29.9451 29.1531 30.4312 26.2218 30.9819L26.1127 29.8657Z" fill="white"/>
<path opacity="0.69" d="M35.1497 29.3696C35.0098 29.9883 34.9186 30.617 34.8769 31.2499C34.5833 31.9035 34.252 32.5396 33.8849 33.1549L31.8662 34.4051L30.0261 34.5341C30.0261 34.5341 28.3001 33.909 28.2307 33.8693C28.1612 33.8296 26.3013 31.994 26.3013 31.994L26.2021 30.977C29.1482 30.4263 32.2928 29.9451 35.1497 29.3696Z" fill="#E5F3FF"/>
<path opacity="0.69" d="M26.0927 29.687V28.4666C28.5726 27.777 31.0774 27.0824 33.7954 26.9187L34.1078 27.261L34.8518 28.4715C31.9999 28.8188 29.0141 29.429 26.1225 29.8606L26.0927 29.687Z" fill="#E5F3FF"/>
<path d="M23.7568 28.6205C23.7568 28.6205 25.1654 28.05 25.8796 27.8664C26.2447 26.9655 26.8693 26.1935 27.6742 25.6485C28.479 25.1036 29.4277 24.8104 30.3996 24.8062C31.3715 24.8019 32.3227 25.0868 33.1322 25.6247C33.9418 26.1625 34.5732 26.929 34.9462 27.8267C34.976 27.8962 34.9958 27.9706 35.0256 28.045C35.6274 27.6295 36.3084 27.3423 37.026 27.2015C37.7436 27.0607 38.4826 27.0692 39.1968 27.2264C39.0308 26.2426 39.1689 25.2315 39.5926 24.3283C40.0164 23.4251 40.7056 22.6727 41.5682 22.1717C42.4308 21.6708 43.4258 21.445 44.4201 21.5247C45.4144 21.6044 46.3607 21.9856 47.1326 22.6176L49.3645 22.4787L48.5511 24.5177C49.051 25.7183 49.0535 27.0684 48.5582 28.2709C48.0629 29.4734 47.1103 30.4299 45.91 30.9299C44.7096 31.4299 43.3599 31.4324 42.1577 30.937C40.9554 30.4416 39.9992 29.4887 39.4993 28.2881C39.4597 28.1889 39.4249 28.0847 39.3902 27.9855C38.6837 27.7843 37.94 27.75 37.2179 27.8852C36.4958 28.0203 35.815 28.3213 35.2289 28.7644C35.3612 29.4194 35.3583 30.0947 35.2204 30.7486C35.0825 31.4025 34.8125 32.0213 34.4269 32.5672C34.0414 33.113 33.5484 33.5743 32.9782 33.9227C32.4081 34.2711 31.7728 34.4994 31.1113 34.5935C30.4498 34.6876 29.7761 34.6455 29.1314 34.4698C28.4868 34.2942 27.8848 33.9887 27.3624 33.572C26.84 33.1553 26.4082 32.6363 26.0936 32.0467C25.7789 31.4572 25.5879 30.8096 25.5324 30.1435L23.7568 28.6205ZM45.6446 30.2874C46.4113 29.9675 47.066 29.4273 47.5259 28.7352C47.9857 28.0431 48.2301 27.2302 48.2281 26.3992C48.2261 25.5682 47.9778 24.7565 47.5146 24.0666C47.0514 23.3768 46.3942 22.8398 45.6259 22.5235C44.8576 22.2073 44.0129 22.1259 43.1984 22.2899C42.384 22.4538 41.6364 22.8556 41.0502 23.4444C40.464 24.0333 40.0655 24.7827 39.9051 25.5981C39.7447 26.4135 39.8296 27.2581 40.1491 28.0252C40.5778 29.0543 41.3974 29.8712 42.4278 30.2963C43.4582 30.7214 44.6152 30.72 45.6446 30.2924V30.2874ZM32.0348 33.5816C32.8015 33.2616 33.4562 32.7215 33.916 32.0294C34.3758 31.3373 34.6202 30.5244 34.6182 29.6934C34.6162 28.8624 34.3679 28.0507 33.9048 27.3608C33.4416 26.6709 32.7843 26.1339 32.0161 25.8177C31.2478 25.5014 30.403 25.4201 29.5886 25.584C28.7741 25.7479 28.0265 26.1497 27.4403 26.7386C26.8541 27.3274 26.4557 28.0769 26.2953 28.8923C26.1349 29.7076 26.2198 30.5522 26.5392 31.3193C26.9689 32.3476 27.7889 33.1633 28.8192 33.5874C29.8495 34.0116 31.006 34.0095 32.0348 33.5816Z" fill="#3D2611"/>
<path d="M29.9812 30.2577C29.9812 30.2577 30.8541 30.9721 33.22 29.8013C33.22 29.8013 32.9373 27.926 32.3619 27.8169C31.7866 27.7077 31.4642 28.6652 31.8659 29.6574C31.2544 29.9067 30.6242 30.1074 29.9812 30.2577Z" fill="#5B3617"/>
<path d="M29.9269 30.1535C29.9694 29.9639 30.0224 29.7767 30.0856 29.5929C30.1489 29.4034 30.2234 29.2179 30.3088 29.0373C30.4102 28.8288 30.5297 28.6296 30.6659 28.442C30.7337 28.3429 30.8101 28.2499 30.894 28.1641C30.9754 28.0777 31.0651 27.9996 31.1619 27.9309C31.2584 27.8716 31.3596 27.8202 31.4644 27.7772C31.5735 27.7772 31.6678 27.7276 31.762 27.7127C31.8562 27.6978 31.9406 27.7127 32.015 27.7127C32.0797 27.721 32.143 27.7376 32.2034 27.7623L32.3572 27.8168H32.1985C32.1406 27.8139 32.0827 27.8139 32.0249 27.8168C31.9604 27.8168 31.886 27.8466 31.8066 27.8615L31.5636 27.9508C31.4892 28.0054 31.3999 28.0401 31.3156 28.0996C31.2288 28.1568 31.1459 28.2197 31.0676 28.2881C30.9832 28.3588 30.9052 28.4369 30.8345 28.5213C30.5652 28.8528 30.3432 29.2202 30.1748 29.6128C30.0923 29.7872 30.0194 29.9661 29.9566 30.1486L29.9269 30.1535Z" fill="#5B3617"/>
<path d="M45.9023 26.4328H45.6395C45.6395 26.4328 45.4312 24.5079 44.5781 24.8254C43.725 25.1429 44.1664 26.274 44.3152 26.7106L43.2687 27.0628C43.4841 27.2092 43.7277 27.3091 43.9839 27.3561C44.2401 27.403 44.5032 27.3961 44.7566 27.3357C45.2315 27.1765 45.6365 26.8574 45.9023 26.4328Z" fill="#5B3617"/>
<path d="M43.0059 27.0578C42.9463 26.8318 42.9065 26.601 42.8869 26.3682C42.8578 26.1309 42.8578 25.891 42.8869 25.6538C42.9176 25.3839 43.0261 25.1287 43.1994 24.9195C43.2908 24.8192 43.4002 24.7368 43.5217 24.6764C43.6316 24.6243 43.7462 24.5828 43.864 24.5524C43.9798 24.5285 44.098 24.5185 44.2161 24.5226C44.3252 24.5294 44.4333 24.5477 44.5385 24.5772C44.6303 24.6026 44.7186 24.6393 44.8014 24.6864C44.8672 24.7223 44.9288 24.7655 44.9849 24.8153C45.0371 24.8572 45.0838 24.9055 45.1238 24.9592C44.9489 24.8479 44.7499 24.7798 44.5435 24.7608C44.4512 24.7508 44.358 24.7508 44.2657 24.7608C44.1623 24.7688 44.0596 24.7837 43.9582 24.8054C43.8488 24.8298 43.7411 24.8613 43.6358 24.8997C43.5358 24.9396 43.4435 24.9967 43.363 25.0683C43.1983 25.2391 43.0878 25.4549 43.0456 25.6885C42.9998 25.9104 42.9781 26.1366 42.9811 26.3632C42.9808 26.5927 43.0007 26.8218 43.0406 27.0478L43.0059 27.0578Z" fill="#5B3617"/>
<path d="M39.6382 32.5895C39.6768 32.6103 39.7106 32.639 39.7374 32.6738C39.7574 32.7121 39.7678 32.7546 39.7678 32.7978C39.7678 32.841 39.7574 32.8836 39.7374 32.9219C39.6241 33.129 39.4361 33.2851 39.2116 33.3584C38.721 33.5727 38.1979 33.7035 37.6642 33.7454C37.3765 33.7454 36.8458 33.7007 36.9053 33.284C36.945 33.0211 37.4013 32.7879 37.6146 32.6738C37.9224 32.5041 38.2653 32.4082 38.6165 32.3936C38.9676 32.3789 39.3174 32.446 39.6382 32.5895Z" fill="#F2D2A9"/>
<path d="M40.4764 43.1465C41.8602 43.1465 44.484 42.834 44.35 42.8935C43.7575 43.2263 43.284 43.7364 42.996 44.3521C42.953 44.4513 42.9051 44.5522 42.8522 44.6547C42.4065 45.4916 41.9095 46.3001 41.3642 47.0757C40.2185 44.5307 38.051 45.0913 37.6741 44.5059C37.3288 44.0419 36.9178 43.6308 36.4539 43.2855C37.79 43.1471 39.134 43.1007 40.4764 43.1465Z" fill="url(#paint7_linear)"/>
<path d="M41.771 41.425C41.771 41.425 38.3338 40.9785 37.8329 41.425C37.8329 41.425 38.1999 40.6908 42.0785 41.0926C45.9571 41.4945 41.771 41.425 41.771 41.425Z" fill="#462A13"/>
<path d="M60.8118 134.986C60.8118 134.986 53.0694 183.248 46.4679 195.7C46.4679 195.7 42.3958 201.837 43.7895 204.903C45.1833 207.969 46.939 210.494 44.9601 217.534C42.9811 224.573 36.8011 239.546 36.8011 239.546L34.7279 241.168L41.513 154.92L37.8427 156.542L36.9797 144.09L46.6464 137.933L60.8118 134.986Z" fill="url(#paint8_linear)"/>
<path d="M24.0792 151.323C24.0792 151.323 25.4977 199.853 30.1103 207.612L58.0244 231.971V230.706C58.0244 230.706 47.9013 210.137 43.7896 209.055C39.6779 207.974 33.5426 206.193 34.728 202.021C36.8012 194.718 39.3555 163.959 39.4894 155.823C39.4894 154.91 40.2285 147.349 40.2285 147.349L36.9797 144.1L24.0792 151.323Z" fill="url(#paint9_linear)"/>
<path d="M41.5129 154.92C41.3641 153.7 41.1905 152.484 41.017 151.264L40.4813 147.617L40.2035 145.796L40.0647 144.889L40.0002 144.437L39.9704 144.214V144.12V144.03C39.9311 143.963 39.8671 143.913 39.7919 143.891C39.7655 143.888 39.7389 143.888 39.7125 143.891C39.6078 143.894 39.5041 143.912 39.405 143.946L39.1669 144.025L38.7205 144.199C38.4279 144.323 38.1452 144.452 37.8575 144.581C37.2871 144.844 36.7316 145.122 36.1761 145.409L35.9976 145.504L36.0571 145.692L37.7087 150.807C38.289 152.504 38.8346 154.21 39.4397 155.897L39.4695 155.982L39.5488 155.942C40.1887 155.57 40.8384 155.252 41.5129 154.92ZM41.5129 154.92C40.8235 155.188 40.1391 155.466 39.4546 155.743L39.5637 155.793C39.0677 154.062 38.5717 152.35 38.0758 150.629L36.4985 145.489L36.3795 145.772L38.046 144.948C38.3237 144.814 38.6065 144.685 38.8842 144.561L39.3058 144.388C39.4211 144.34 39.5407 144.303 39.6629 144.278C39.6343 144.271 39.6078 144.257 39.5861 144.237C39.5645 144.217 39.5482 144.192 39.5389 144.164V144.08V144.115V144.249L39.5736 144.482L39.648 144.938L39.8018 145.846C39.9059 146.451 40.0051 147.057 40.1192 147.662L40.7938 151.288C41.0219 152.514 41.2501 153.719 41.5129 154.92Z" fill="#796960"/>
<path d="M78.9797 69.6339C70.1209 65.9138 61.0243 62.788 51.7501 60.2772C46.1108 67.6048 43.8144 75.7707 30.1946 55.5047C20.7619 53.8838 11.1937 53.1876 1.62582 53.426C1.62582 53.426 -6.90018 107.834 15.0968 117.474C15.0968 117.474 25.2694 108.946 29.2026 103.012C29.2026 103.012 43.4027 115.99 57.3002 118.585C57.3002 118.575 78.4838 109.68 78.9797 69.6339Z" fill="#596F92"/>
<path d="M53.3076 57.1071L54.25 60.9866C54.25 60.9866 46.0117 85.4647 37.2129 91.4477C28.4141 97.4308 33.7956 79.3427 33.7956 79.3427C33.7956 79.3427 51.9486 61.5125 52.9158 56.8044L53.3076 57.1071Z" fill="#596F92"/>
<path d="M22.2637 136.901C23.5185 138.583 26.6284 139.263 27.1293 141.515C27.1293 143.003 29.6092 142.011 31.0972 142.011C34.0731 141.019 33.5771 138.042 33.0811 135.562C39.033 141.019 48.9527 136.058 55.8965 133.081C57.2202 132.374 58.3094 131.297 59.0311 129.98C59.732 130.676 60.5032 131.296 61.3325 131.831C61.4466 131.905 61.0696 131.831 61.1787 131.905C60.896 133.572 60.772 134.981 60.4397 134.986C50.2571 135.14 24.084 151.323 24.084 151.323L22.2687 143.787C22.2687 143.787 23.3698 141.237 22.2637 136.901Z" fill="#354969"/>
<path d="M24.0791 96.9446C24.0791 96.9446 57.4986 109.268 56.8985 115.693C56.8985 115.876 56.8985 116.05 56.8638 116.223L52.633 111.902L53.625 117.513C53.625 117.513 54.1557 125.183 59.0164 129.98C58.2947 131.297 57.2054 132.374 55.8817 133.081C48.9379 136.058 39.0182 141.019 33.0664 135.562C33.5624 138.042 34.0584 141.019 31.0824 142.011C29.5945 142.011 27.1146 143.003 27.1146 141.515C26.6186 139.268 23.5534 138.801 22.3035 137.115C21.9166 136.321 21.8075 134.937 21.133 134.014C16.0838 127.177 14.6306 110.602 14.6306 110.602L24.0791 96.9446Z" fill="#596F92"/>
<path d="M30.4526 53.5151L28.9547 55.3061L26.2516 70.5862L29.6292 79.7543L32.4068 80.5084L36.7268 62.9759L33.3343 60.6393L32.8879 54.7703L30.4526 53.5151Z" fill="#596F92"/>
<path d="M52.4892 48.7178C52.7391 49.0597 52.9318 49.4401 53.0596 49.8439L52.4842 50.3897C52.7421 50.0027 52.5933 49.3925 52.4892 48.7178Z" fill="#DB9769"/>
<path d="M32.4066 68.1207C32.4066 68.1207 31.3204 68.2993 31.0278 61.6713C30.7351 55.0433 30.8244 51.8533 30.8244 51.8533C30.8244 51.8533 33.9442 52.6223 34.4897 53.5252C35.0353 54.4281 35.8785 59.027 35.8785 59.027C35.8785 59.027 49.042 47.3089 50.2175 46.9468C51.1174 47.3266 51.9023 47.9355 52.494 48.7129C52.6031 49.3876 52.7668 49.9978 52.494 50.3848L51.7401 51.0992C49.9397 52.5875 47.6879 53.6343 46.6761 55.9214L46.5521 56.0355L46.6166 56.0752C46.567 56.1942 46.5174 56.3083 46.4777 56.4324C46.5174 56.3083 46.567 56.1893 46.6166 56.0752C46.9985 56.3034 49.1957 57.6578 49.404 58.526L47.8466 61.3339C49.159 63.1888 49.8894 65.3926 49.9447 67.6643C49.9447 67.6643 42.7082 75.989 40.6251 74.6098L37.917 81.8034C37.917 81.8034 30.2243 80.0819 29.634 77.9139L32.4066 68.1207Z" fill="#ECB584"/>
<path d="M51.7502 51.1042L46.6713 55.9066C47.6832 53.6443 49.9349 52.6025 51.7502 51.1042Z" fill="#DB9769"/>
<path d="M52.3008 49.6903C51.8134 48.7771 51.047 48.0436 50.1135 47.5967C50.1135 47.5967 49.057 48.9114 49.1513 49.2438C49.2455 49.5762 50.2772 50.5386 50.5847 50.4642C50.8922 50.3898 52.3008 49.6903 52.3008 49.6903Z" fill="#F2D2A9"/>
<path d="M47.8418 61.3638C47.8418 61.3638 49.7167 63.8443 49.7067 64.0229C49.6968 64.2015 49.3596 66.0073 49.3596 66.0073L47.8418 61.3638Z" fill="#ECB584"/>
<path d="M49.0817 68.6218C49.0817 68.6218 48.3427 61.9491 44.3649 58.6996L46.5472 56.0454C46.5472 56.0454 49.295 57.7868 49.3991 58.526L47.8418 61.3339C47.8418 61.3339 49.7563 63.6656 49.7067 63.9931L49.5529 64.9853C49.5529 64.9853 50.1332 67.193 49.9398 67.6692L49.0817 68.6218Z" fill="#E09C6F"/>
<path d="M30.7949 52.6619C30.7949 52.6619 34.1725 51.9029 35.4819 59.1709L35.8738 59.032C35.8738 59.032 34.8818 53.9072 34.4701 53.5103C34.0585 53.1134 33.5178 52.518 30.8048 51.8384L30.7949 52.6619Z" fill="#E09C6F"/>
<path d="M30.9189 59.9746C30.9189 59.9746 30.8594 66.8408 32.3672 68.1257L30.4923 74.7983L32.9028 68.4878C31.7564 65.7855 31.0852 62.9054 30.9189 59.9746Z" fill="#E09C6F"/>
<path d="M46.6711 53.922C46.6711 53.922 44.841 52.2551 44.7219 52.1757C44.6029 52.0963 45.4808 53.7037 46.6711 53.922Z" fill="#E09C6F"/>
<path d="M49.3594 67.6047C49.3594 67.6047 42.3709 73.4936 39.6381 73.3745L38.2195 80.2158L38.4427 80.5284L40.6201 74.6594C40.6201 74.6594 42.0634 76.5149 49.2007 68.5126L49.3594 67.6047Z" fill="#E09C6F"/>
<path d="M34.7278 241.168H45.1138C45.1138 241.168 45.1138 239.402 42.4355 239.402C39.7571 239.402 36.7961 239.546 36.7961 239.546L34.7278 241.168Z" fill="#4A3123"/>
<path d="M57.315 229.287C57.315 229.287 57.3844 229.887 56.447 230.537C56.447 230.537 55.5096 236.842 55.5096 238.038C55.5096 239.234 54.101 239.095 53.3124 239.397C52.5238 239.7 53.1785 241.163 53.1785 241.163H56.3726L59.1154 234.506L58.555 232.328L59.6759 232.66L60.0925 231.405C60.0925 231.405 58.4707 229.545 57.315 229.287Z" fill="#4A3123"/>
<path d="M59.3386 100.675L41.7063 92.7971L41.131 94.5534L59.3386 100.675Z" fill="#7694C5"/>
<path d="M23.1367 73.6074C23.1367 73.6074 26.6632 71.747 28.5926 72.0546C30.522 72.3622 30.522 74.7931 30.522 74.7931L29.6391 77.4225C29.6391 77.4225 27.9428 73.1659 23.1367 73.6074Z" fill="#354969"/>
<path d="M60.8118 134.986C60.8118 134.986 26.2763 150.678 24.0791 151.323L23.8014 149.339L61.3276 131.811C61.0502 132.85 60.8774 133.913 60.8118 134.986Z" fill="#412C25"/>
<path d="M36.0818 108.072L29.634 102.407C29.634 102.407 28.9694 105.88 25.061 108.072C25.061 108.072 18.0676 115.211 15.9151 116.769C15.9151 116.769 23.5433 108.271 23.7616 107.586C23.9798 106.902 13.9807 95.119 13.3806 94.5782C12.7804 94.0375 9.7946 96.9447 9.7946 96.9447C9.7946 96.9447 12.2398 93.5959 13.5988 93.3826C14.9578 93.1693 29.1976 99.961 29.1976 99.961L37.7285 105.562L36.3695 107.591L36.0818 108.072Z" fill="#354969"/>
<path d="M44.7319 95.7639L32.6299 91.542L27.9329 100.363L40.5656 109.953L44.7319 95.7639Z" fill="#E09C6F"/>
<path d="M39.7671 142.095L41.1509 145.236L35.5958 147.066L34.6336 143.524L39.7671 142.095Z" fill="#CFD1D2"/>
<path d="M39.4994 142.547L40.7344 145.003L35.9679 146.59L35.2488 143.881L39.4994 142.547Z" fill="#412C25"/>
<path d="M40.0796 143.524L39.3703 143.728L39.5092 144.04L40.283 143.703L40.0796 143.524Z" fill="#CFD1D2"/>
<path d="M32.9028 68.4878C32.7044 69.0087 14.6554 93.7893 14.6554 93.7893L25.1703 105.2C25.1703 105.2 33.6021 94.8659 40.6401 74.6495L32.9028 68.4878Z" fill="#ECB584"/>
<path d="M39.6432 73.3745C39.6432 73.3745 31.261 98.4875 23.1417 103.002L25.1554 105.185C25.1554 105.185 34.6387 93.1891 40.6252 74.6346L39.6432 73.3745Z" fill="#E09C6F"/>
<path d="M32.4068 68.1206C32.4068 68.1206 30.6957 71.7025 24.3074 80.5233C24.3074 80.5233 31.0726 72.3475 32.9028 68.5026L32.4068 68.1206Z" fill="#E09C6F"/>
<path d="M56.8291 118.575C56.8291 118.575 47.9658 115.722 45.8331 114.442C45.8331 114.442 47.0731 109.903 47.9956 108.871C48.9181 107.839 51.9635 102.615 52.0726 100.437C52.1817 98.2593 51.7502 97.5796 51.7502 97.5796C51.7502 97.5796 51.4774 102.66 48.4866 105.2C45.4958 107.74 44.737 113.832 44.737 113.832V114.497C44.737 114.497 46.4233 115.668 56.8291 118.575Z" fill="#354969"/>
<path d="M16.2129 95.3768C18.1968 94.3846 19.1888 96.8652 20.6768 96.8652C17.8992 94.5533 16.8577 89.2201 19.5409 86.0996C20.9595 87.836 24.595 91.2095 33.3293 95.0742C33.3293 95.0742 30.6014 97.2918 30.0906 99.5392C29.3863 102.635 28.3645 104.644 27.4073 105.879C22.9831 104.108 19.5905 98.7504 16.2129 95.3768Z" fill="#AFB2BA"/>
<path d="M13.4403 92.276C15.4242 90.8721 16.6989 90.9068 16.8626 88.3419C17.0262 85.777 18.7076 84.8691 18.7076 84.8691C18.9306 85.3169 19.2107 85.7338 19.5409 86.1094C16.8527 89.2299 17.8992 94.5433 20.6767 96.875C19.1887 96.875 18.1968 94.3944 16.2128 95.3867C19.5855 98.7602 22.9632 104.118 27.4072 105.889C26.3061 107.303 25.2943 107.705 24.9273 107.566C24.2726 107.303 13.9263 94.2158 13.4254 93.7793C12.9244 93.3427 11.4365 93.68 13.4403 92.276Z" fill="#9EA1A8"/>
<path d="M36.5928 104.525C36.2655 106.232 36.32 107.745 37.5402 108.757C39.5241 110.741 37.5402 105.284 40.0201 103.796C39.9381 106.122 40.1044 108.45 40.5161 110.741C41.0121 111.238 41.0121 109.749 41.508 110.245C42.004 111.734 42.004 113.718 43.988 113.222C45.9719 112.23 46.7357 110.28 47.7178 108.306C46.4034 110.975 45.957 113.862 45.3618 114.184C44.5633 114.616 42.0735 115.578 41.0517 113.341C40.03 111.104 39.2761 111.813 37.8923 110.9C36.7763 110.176 34.8866 108.901 36.5928 104.525Z" fill="#9EA1A8"/>
<path d="M43.9879 113.237C42.004 113.733 42.004 111.748 41.508 110.26C41.012 109.764 41.012 111.252 40.516 110.756C40.1043 108.465 39.9381 106.137 40.02 103.811C37.5401 105.299 39.524 110.756 37.5401 108.772C36.3249 107.78 36.2654 106.247 36.5928 104.54C37.1189 103.251 37.7579 102.011 38.5023 100.834C43.0753 93.3924 39.8316 91.904 42.7975 92.6581C45.7635 93.4122 51.7253 96.9445 51.7253 96.9445C51.7253 96.9445 52.0278 102.898 49.3545 105.825C48.9245 106.308 48.544 106.833 48.2187 107.393C47.9494 107.49 47.6929 107.62 47.4549 107.78C47.6929 107.62 47.9494 107.49 48.2187 107.393C48.0401 107.695 47.8665 108.003 47.7227 108.315V108.286V108.315C46.7357 110.295 45.9619 112.249 43.9879 113.237Z" fill="#AFB2BA"/>
<path d="M54.23 60.6394C54.23 60.6394 49.8355 78.1719 48.3277 79.9529L54.23 60.6394Z" fill="#354969"/>
<path d="M41.7063 75.3489C41.7063 75.3489 47.5341 78.9606 47.8367 80.5084C47.8367 80.5084 44.0622 77.507 42.0436 77.9286C40.0249 78.3503 38.8246 80.5084 38.8246 80.5084L41.7063 75.3489Z" fill="#354969"/>
<path d="M28.4685 55.5642C28.4685 55.5642 22.5167 66.3645 21.5247 72.4319L28.4685 55.5642Z" fill="#354969"/>
<path d="M28.796 108.072C28.796 108.072 28.7662 127.549 32.1687 132.848C32.1687 132.848 27.6155 127.763 28.796 108.072Z" fill="#354969"/>
<path d="M26.7922 112.041C26.3292 112.041 25.9539 111.697 25.9539 111.272C25.9539 110.847 26.3292 110.503 26.7922 110.503C27.2551 110.503 27.6304 110.847 27.6304 111.272C27.6304 111.697 27.2551 112.041 26.7922 112.041Z" fill="#96ADD2"/>
<path d="M28.5778 129.529C28.1149 129.529 27.7396 129.185 27.7396 128.76C27.7396 128.335 28.1149 127.991 28.5778 127.991C29.0407 127.991 29.416 128.335 29.416 128.76C29.416 129.185 29.0407 129.529 28.5778 129.529Z" fill="#96ADD2"/>
<path d="M19.759 113.316C19.7194 113.361 16.927 117.96 17.9784 122.886C19.0299 127.812 18.5191 128.919 18.5191 128.919C17.1182 125.096 16.1208 121.137 15.5432 117.106L19.759 113.316Z" fill="#354969"/>
<path d="M59.2991 132.779L59.0263 135.795L58.1434 136.197L57.7863 133.27L59.2991 132.779Z" fill="url(#paint10_linear)"/>
<path d="M49.5034 137.343L49.6323 140.275L48.8139 140.652L47.9906 138.047L49.5034 137.343Z" fill="url(#paint11_linear)"/>
<path d="M29.1085 146.843L29.8425 148.892L29.2325 149.16L28.0322 147.349L29.1085 146.843Z" fill="url(#paint12_linear)"/>
<path d="M65.3096 38.8468C65.3096 25.4726 76.1515 14.6306 89.5258 14.6306H116.249C122.936 14.6306 128.357 20.0516 128.357 26.7387C128.357 33.4258 122.936 38.8468 116.249 38.8468H65.3096Z" fill="#EDEDED"/>
<path d="M152.567 77.1892C152.567 60.6207 139.136 46.9189 122.567 46.9189H95.576C87.2171 46.9189 80.4409 53.6952 80.4409 62.0541C80.4409 70.413 87.2171 77.1892 95.576 77.1892H152.567Z" fill="#F2B94B"/>
<rect x="76.9104" y="22.1982" width="42.3679" height="3.53153" rx="1.76577" fill="#C4C4C4"/>
<rect x="76.9104" y="28.2522" width="21.1839" height="3.53153" rx="1.76577" fill="#C4C4C4"/>
<rect x="90.5286" y="53.9819" width="42.3679" height="3.53153" rx="1.76576" fill="white"/>
<rect x="90.5286" y="66.5945" width="23.7058" height="3.53153" rx="1.76577" fill="white"/>
<rect x="116.756" y="66.5945" width="9.07883" height="3.53153" rx="1.76577" fill="white"/>
<rect x="90.5286" y="60.0361" width="21.1839" height="3.53154" rx="1.76577" fill="white"/>
<rect x="114.234" y="60.0361" width="29.7584" height="3.53154" rx="1.76577" fill="white"/>
<defs>
<linearGradient id="paint0_linear" x1="19083.8" y1="-1.85521e+06" x2="20345" y2="-1.8549e+06" gradientUnits="userSpaceOnUse">
<stop stop-color="#270A00"/>
<stop offset="1" stop-color="#512207"/>
</linearGradient>
<linearGradient id="paint1_linear" x1="8944.67" y1="-159523" x2="9114.68" y2="-159523" gradientUnits="userSpaceOnUse">
<stop stop-color="#E9C7B3"/>
<stop offset="1" stop-color="#90775F"/>
</linearGradient>
<linearGradient id="paint2_linear" x1="3668.52" y1="-291227" x2="3789.64" y2="-291190" gradientUnits="userSpaceOnUse">
<stop stop-color="#270A00"/>
<stop offset="1" stop-color="#512207"/>
</linearGradient>
<linearGradient id="paint3_linear" x1="1733.68" y1="-224780" x2="1769.64" y2="-224774" gradientUnits="userSpaceOnUse">
<stop stop-color="#270A00"/>
<stop offset="1" stop-color="#512207"/>
</linearGradient>
<linearGradient id="paint4_linear" x1="2607.22" y1="-147179" x2="2633.14" y2="-147168" gradientUnits="userSpaceOnUse">
<stop stop-color="#270A00"/>
<stop offset="1" stop-color="#512207"/>
</linearGradient>
<linearGradient id="paint5_linear" x1="5033.14" y1="-168358" x2="5058.97" y2="-168340" gradientUnits="userSpaceOnUse">
<stop stop-color="#270A00"/>
<stop offset="1" stop-color="#512207"/>
</linearGradient>
<linearGradient id="paint6_linear" x1="5421.87" y1="9805.26" x2="5208.99" y2="9903.31" gradientUnits="userSpaceOnUse">
<stop stop-color="#B5673B"/>
<stop offset="1" stop-color="#4F1306"/>
</linearGradient>
<linearGradient id="paint7_linear" x1="40.4788" y1="44.9399" x2="40.3341" y2="41.374" gradientUnits="userSpaceOnUse">
<stop stop-color="#462A13"/>
<stop offset="1"/>
</linearGradient>
<linearGradient id="paint8_linear" x1="-3598.76" y1="74658.9" x2="-7244.65" y2="72502" gradientUnits="userSpaceOnUse">
<stop stop-color="#B6A28B"/>
<stop offset="1" stop-color="#8F8169"/>
</linearGradient>
<linearGradient id="paint9_linear" x1="-5185.16" y1="62334.7" x2="-8626.71" y2="59132.1" gradientUnits="userSpaceOnUse">
<stop stop-color="#B6A28B"/>
<stop offset="1" stop-color="#8F8169"/>
</linearGradient>
<linearGradient id="paint10_linear" x1="-101.583" y1="2260.37" x2="-105.748" y2="2255.89" gradientUnits="userSpaceOnUse">
<stop stop-color="#B6A28B"/>
<stop offset="1" stop-color="#8F8169"/>
</linearGradient>
<linearGradient id="paint11_linear" x1="-156.534" y1="2227.49" x2="-160.446" y2="2222.81" gradientUnits="userSpaceOnUse">
<stop stop-color="#B6A28B"/>
<stop offset="1" stop-color="#8F8169"/>
</linearGradient>
<linearGradient id="paint12_linear" x1="-271.002" y1="1653.11" x2="-272.817" y2="1649.7" gradientUnits="userSpaceOnUse">
<stop stop-color="#B6A28B"/>
<stop offset="1" stop-color="#8F8169"/>
</linearGradient>
<clipPath id="clip0">
<rect width="14.5261" height="14.5297" fill="white" transform="translate(178.089 164.065)"/>
</clipPath>
<clipPath id="clip1">
<rect width="14.5261" height="14.5297" fill="white" transform="translate(98.1953 164.065)"/>
</clipPath>
</defs>
</svg>
